<?xml version="1.0" standalone="no"?>
<!DOCTYPE svg PUBLIC "-//W3C//DTD SVG 20010904//EN"
 "http://www.w3.org/TR/2001/REC-SVG-20010904/DTD/svg10.dtd">
<svg version="1.0" xmlns="http://www.w3.org/2000/svg"
 width="623.000000pt" height="472.000000pt" viewBox="0 0 623.000000 472.000000"
 preserveAspectRatio="xMidYMid meet">

<g transform="translate(0.000000,472.000000) scale(0.100000,-0.100000)"
fill="#000000" stroke="none">
<path d="M2712 3767 c-21 -26 -31 -146 -20 -243 11 -105 8 -124 -22 -124 -21
0 -27 -14 -11 -25 6 -3 5 -20 -3 -42 -11 -32 -19 -38 -62 -50 -27 -8 -56 -22
-64 -30 -16 -17 -16 -17 68 2 29 7 32 6 32 -17 0 -21 -10 -30 -60 -52 -33 -15
-60 -31 -60 -37 0 -14 20 -11 69 11 23 11 47 17 52 14 20 -12 6 -31 -46 -59
-52 -27 -69 -45 -44 -45 6 0 33 10 60 21 27 12 53 19 57 15 14 -15 -41 -141
-80 -180 -81 -82 -152 -275 -164 -446 -6 -75 -10 -91 -41 -137 -41 -60 -65
-150 -53 -194 30 -104 134 -186 281 -223 82 -20 129 -20 204 -1 66 18 88 33
105 76 20 48 51 48 98 -2 l39 -43 89 -4 c78 -4 92 -2 114 16 17 14 24 29 24
56 0 45 26 50 43 7 17 -46 50 -62 148 -72 49 -6 87 3 107 23 18 18 34 21 106
23 75 2 87 4 104 25 26 32 23 73 -8 110 l-27 31 26 27 c73 78 91 187 58 346
-16 80 -35 130 -99 260 -69 139 -102 219 -102 249 0 12 40 8 71 -9 17 -8 40
-14 52 -12 18 3 10 10 -35 33 -52 26 -55 30 -45 52 12 28 10 28 86 4 34 -10
64 -15 66 -10 7 10 -50 35 -100 45 -31 5 -35 10 -35 36 l0 30 48 -6 c26 -4 60
-9 76 -12 21 -5 27 -3 24 7 -5 16 -40 27 -93 28 -51 2 -58 7 -71 59 -10 36 -9
44 5 52 14 8 13 11 -7 16 -14 4 -30 23 -43 53 -19 42 -20 53 -10 136 11 91 2
198 -18 218 -22 22 -153 -61 -192 -122 -15 -23 -18 -24 -62 -13 -57 15 -316
15 -377 1 -42 -10 -46 -9 -63 16 -20 26 -125 101 -164 116 -14 5 -25 4 -31 -4z
m86 -58 c26 -18 66 -50 89 -72 39 -37 43 -39 75 -29 83 26 297 24 420 -4 23
-5 30 -1 53 35 27 43 105 101 136 101 14 0 19 -12 25 -56 3 -30 4 -74 0 -97
-4 -23 -9 -59 -13 -79 -4 -27 1 -49 17 -83 29 -59 21 -67 -15 -14 -37 52 -76
72 -142 71 -75 -1 -122 -27 -152 -83 l-24 -45 -54 1 c-53 2 -54 3 -76 45 -59
116 -253 122 -316 10 -19 -33 -27 -40 -44 -35 -12 4 -29 8 -37 11 -11 3 -16
18 -17 51 -10 342 -13 331 75 272z m268 -270 c44 -27 64 -61 64 -109 0 -73
-47 -130 -124 -151 -59 -16 -119 20 -157 93 -38 74 -17 142 53 177 50 25 113
22 164 -10z m439 7 c97 -41 98 -174 3 -230 -104 -61 -208 -9 -210 104 -1 104
105 168 207 126z m-742 -93 c16 -3 31 -13 34 -22 25 -74 55 -123 95 -151 38
-28 49 -31 96 -28 76 7 130 47 159 118 l22 55 48 0 c45 0 48 -2 51 -27 3 -27
2 -28 -42 -28 -30 0 -46 -4 -47 -12 -2 -25 3 -43 17 -59 17 -19 18 -61 2 -77
-17 -17 -49 -15 -76 4 -13 9 -25 14 -28 11 -10 -10 9 -36 35 -47 22 -9 36 -8
70 6 32 12 45 14 54 5 26 -26 107 3 107 39 0 15 -7 12 -38 -10 -63 -47 -108
30 -47 80 13 11 18 10 33 -2 56 -50 121 -59 189 -28 60 27 90 61 104 114 13
52 25 58 39 20 19 -48 13 -69 -22 -79 -41 -12 -34 -31 10 -27 27 3 32 0 32
-17 0 -16 -8 -20 -42 -23 -56 -4 -64 -28 -9 -28 23 0 41 -4 41 -9 0 -20 -28
-30 -64 -24 -31 5 -38 3 -34 -8 2 -8 14 -15 26 -17 12 -2 22 -7 22 -12 0 -11
-66 -63 -107 -84 -18 -9 -33 -19 -33 -23 0 -12 62 8 101 34 34 22 42 24 50 12
5 -8 9 -20 9 -28 0 -7 36 -86 80 -175 95 -194 114 -257 115 -391 0 -92 -2
-104 -27 -147 -32 -53 -85 -101 -140 -125 -21 -9 -38 -20 -38 -25 0 -15 45 -8
79 13 l33 20 24 -22 c28 -26 33 -79 8 -79 -8 0 -13 3 -11 8 3 4 0 18 -6 32
-10 24 -11 24 -16 -15 -8 -51 -35 -60 -44 -15 -8 37 -26 40 -24 3 3 -41 -34
-44 -62 -5 -27 39 -27 70 3 140 65 154 90 306 59 357 -11 17 -12 9 -13 -50 0
-82 -27 -196 -70 -296 -34 -80 -36 -102 -16 -150 10 -23 11 -39 5 -51 -14 -25
-29 -22 -29 6 0 13 -7 30 -17 37 -15 13 -16 11 -10 -12 8 -31 -13 -65 -36 -56
-9 3 -17 20 -19 38 -4 44 -27 50 -25 7 2 -42 -21 -48 -59 -14 -28 23 -29 28
-28 103 0 56 8 102 28 162 16 52 23 88 17 94 -13 13 -48 -87 -68 -194 -17 -86
-18 -89 -45 -89 -26 0 -29 5 -52 83 -13 45 -27 100 -31 122 -10 63 -26 108
-36 98 -19 -19 37 -249 80 -325 21 -38 24 -52 15 -65 -17 -27 -37 -22 -38 9
-1 15 -7 33 -14 40 -9 9 -12 5 -12 -23 0 -58 -37 -81 -42 -27 -4 38 -28 51
-28 14 0 -33 -15 -41 -50 -26 -39 16 -84 90 -127 210 -39 107 -63 151 -100
180 -42 33 -47 23 -9 -22 20 -22 43 -62 52 -87 9 -25 30 -77 46 -116 15 -38
28 -75 28 -82 0 -24 -30 -13 -60 21 -33 38 -64 48 -206 66 -110 15 -169 42
-207 96 -92 131 -17 513 130 660 24 23 43 50 43 59 0 13 24 70 35 83 1 1 16
-10 33 -26 39 -37 113 -72 149 -72 23 0 16 6 -34 29 -62 30 -157 115 -150 135
2 6 24 15 50 20 25 5 49 16 52 24 6 15 -20 14 -97 -4 -22 -5 -28 -3 -28 9 0
11 15 20 43 27 62 16 67 18 67 31 0 11 -19 10 -84 -7 -23 -5 -26 -3 -26 20 0
25 3 26 51 26 60 0 65 23 6 28 -40 3 -42 7 -27 47 8 20 15 25 28 20 9 -3 30
-9 45 -12z m497 -118 c0 -21 -27 -30 -45 -15 -19 16 -10 30 21 30 15 0 24 -6
24 -15z m-840 -933 c0 -7 14 -33 31 -58 44 -64 101 -89 254 -113 111 -17 131
-23 156 -47 31 -30 38 -69 17 -96 -22 -27 -95 -48 -166 -48 -155 0 -312 85
-357 193 -13 32 -14 48 -5 91 13 66 48 125 61 105 5 -8 9 -20 9 -27z"/>
<path d="M3517 3671 c-54 -59 -57 -85 -16 -127 18 -19 36 -34 39 -34 7 0 22
192 16 198 -2 1 -19 -15 -39 -37z"/>
<path d="M2755 3678 c13 -45 17 -127 7 -157 -6 -17 -8 -31 -4 -31 22 1 117 58
120 71 3 17 -102 139 -120 139 -6 0 -7 -9 -3 -22z"/>
<path d="M3055 3569 c-11 -17 1 -21 15 -4 8 9 8 15 2 15 -6 0 -14 -5 -17 -11z"/>
<path d="M3180 3566 c0 -8 5 -18 10 -21 6 -3 10 1 10 9 0 8 -4 18 -10 21 -5 3
-10 -1 -10 -9z"/>
<path d="M3247 3560 c3 -11 9 -20 14 -20 11 0 11 3 3 24 -9 23 -23 20 -17 -4z"/>
<path d="M3308 3544 c3 -24 8 -32 14 -26 11 11 3 62 -10 62 -4 0 -6 -16 -4
-36z"/>
<path d="M3006 3555 c-3 -8 -1 -15 4 -15 6 0 10 7 10 15 0 8 -2 15 -4 15 -2 0
-6 -7 -10 -15z"/>
<path d="M3096 3555 c-3 -8 -1 -15 3 -15 5 0 11 7 15 15 3 8 1 15 -3 15 -5 0
-11 -7 -15 -15z"/>
<path d="M2952 3318 c-12 -12 -17 -48 -7 -48 3 0 14 9 25 20 27 27 46 25 75
-5 28 -32 44 -16 21 20 -13 20 -25 25 -59 25 -24 0 -48 -5 -55 -12z"/>
<path d="M3376 3324 c-18 -18 -20 -30 -6 -39 6 -3 13 1 16 9 8 21 52 21 75 0
25 -23 34 1 9 26 -24 24 -72 26 -94 4z"/>
<path d="M2795 3040 c-3 -5 3 -10 14 -10 12 0 21 5 21 10 0 6 -6 10 -14 10 -8
0 -18 -4 -21 -10z"/>
<path d="M3240 3040 c-8 -5 -25 -10 -37 -10 -23 0 -31 -14 -15 -24 15 -9 80
13 86 29 6 17 -12 19 -34 5z"/>
<path d="M3485 3030 c3 -5 8 -10 11 -10 2 0 4 5 4 10 0 6 -5 10 -11 10 -5 0
-7 -4 -4 -10z"/>
<path d="M2877 3013 c-12 -12 -7 -22 8 -17 8 4 15 10 15 15 0 11 -14 12 -23 2z"/>
<path d="M3430 3010 c0 -5 5 -10 11 -10 5 0 7 5 4 10 -3 6 -8 10 -11 10 -2 0
-4 -4 -4 -10z"/>
<path d="M2920 2970 c0 -5 4 -10 9 -10 6 0 13 5 16 10 3 6 -1 10 -9 10 -9 0
-16 -4 -16 -10z"/>
<path d="M3340 2959 c0 -19 37 -55 47 -45 4 3 -5 19 -20 34 -20 19 -27 22 -27
11z"/>
<path d="M3405 2960 c3 -5 11 -10 16 -10 6 0 7 5 4 10 -3 6 -11 10 -16 10 -6
0 -7 -4 -4 -10z"/>
<path d="M3290 2944 c0 -15 27 -50 34 -43 4 3 -2 17 -13 30 -11 13 -20 19 -21
13z"/>
<path d="M2680 2925 c-20 -24 -6 -28 15 -5 10 11 13 20 8 20 -6 0 -16 -7 -23
-15z"/>
<path d="M3012 2919 c-7 -12 -11 -23 -8 -26 8 -9 36 17 36 33 0 20 -13 17 -28
-7z"/>
<path d="M2950 2920 c0 -5 4 -10 9 -10 6 0 13 5 16 10 3 6 -1 10 -9 10 -9 0
-16 -4 -16 -10z"/>
<path d="M3240 2923 c0 -5 5 -15 10 -23 8 -12 10 -11 10 8 0 12 -4 22 -10 22
-5 0 -10 -3 -10 -7z"/>
<path d="M2713 2905 c-9 -25 4 -29 17 -6 7 15 7 21 0 21 -6 0 -13 -7 -17 -15z"/>
<path d="M3190 2904 c0 -8 5 -12 10 -9 6 3 10 10 10 16 0 5 -4 9 -10 9 -5 0
-10 -7 -10 -16z"/>
<path d="M3127 2903 c-4 -3 -7 -11 -7 -17 0 -6 5 -5 12 2 6 6 9 14 7 17 -3 3
-9 2 -12 -2z"/>
<path d="M2746 2874 c-9 -22 3 -32 14 -14 12 19 12 30 1 30 -5 0 -12 -7 -15
-16z"/>
<path d="M2804 2855 c-9 -13 -14 -29 -12 -34 1 -6 13 5 26 24 12 19 18 35 12
35 -5 0 -17 -11 -26 -25z"/>
<path d="M3581 2843 c13 -16 28 -32 32 -38 6 -6 6 0 2 15 -7 26 -31 50 -49 50
-5 0 1 -12 15 -27z"/>
<path d="M3620 2855 c0 -2 11 -21 25 -41 28 -41 34 -30 10 16 -13 25 -35 41
-35 25z"/>
<path d="M3000 2769 c0 -44 -3 -60 -12 -57 -7 3 -14 19 -16 36 -3 31 -33 62
-58 62 -7 0 -15 -22 -19 -49 -5 -37 -11 -50 -26 -54 -16 -4 -19 -14 -19 -60 0
-60 15 -80 80 -107 35 -15 88 -2 127 30 24 19 27 30 25 98 -2 38 -5 42 -27 42
-20 0 -25 5 -25 25 0 14 5 25 10 25 14 0 12 32 -4 53 -25 33 -36 19 -36 -44z
m60 -129 c0 -36 -3 -41 -40 -60 -48 -24 -59 -25 -105 -3 -32 15 -35 20 -35 60
l0 43 90 0 90 0 0 -40z"/>
<path d="M2920 2630 c-19 -12 -13 -16 34 -23 37 -6 38 -6 21 13 -20 22 -33 24
-55 10z"/>
<path d="M3404 2817 c3 -10 6 -23 6 -28 0 -5 5 -9 10 -9 14 0 12 13 -6 36 -14
17 -15 17 -10 1z"/>
<path d="M3536 2805 c4 -8 10 -15 15 -15 4 0 6 7 3 15 -4 8 -10 15 -15 15 -4
0 -6 -7 -3 -15z"/>
<path d="M3360 2793 c0 -5 5 -15 10 -23 8 -12 10 -11 10 8 0 12 -4 22 -10 22
-5 0 -10 -3 -10 -7z"/>
<path d="M2623 2775 c-9 -24 1 -27 15 -5 8 13 8 20 2 20 -6 0 -13 -7 -17 -15z"/>
<path d="M3479 2709 c2 -33 7 -47 13 -41 12 12 6 84 -7 89 -6 2 -9 -17 -6 -48z"/>
<path d="M2672 2738 c-7 -7 -12 -16 -12 -20 0 -15 15 -8 28 12 13 22 3 27 -16
8z"/>
<path d="M2731 2704 c-19 -25 -27 -44 -17 -44 2 0 13 16 25 35 24 42 21 45 -8
9z"/>
<path d="M2510 2685 c-8 -9 -8 -15 -2 -15 12 0 26 19 19 26 -2 2 -10 -2 -17
-11z"/>
<path d="M3427 2668 c-3 -18 -8 -44 -13 -58 -7 -22 -6 -24 9 -11 20 16 33 79
19 93 -6 6 -11 -1 -15 -24z"/>
<path d="M3721 2675 c0 -5 8 -26 19 -45 16 -28 19 -31 20 -14 0 12 -9 32 -20
45 -10 13 -19 20 -19 14z"/>
<path d="M3378 2641 c-3 -17 -1 -31 3 -31 13 0 22 41 11 52 -6 6 -11 -1 -14
-21z"/>
<path d="M2530 2631 c-6 -12 -7 -21 -1 -21 10 0 24 30 17 37 -2 3 -9 -5 -16
-16z"/>
<path d="M3700 2634 c0 -5 7 -18 15 -28 12 -16 15 -17 15 -4 0 8 -7 21 -15 28
-8 7 -15 9 -15 4z"/>
<path d="M2572 2608 c-7 -7 -12 -19 -12 -27 0 -11 5 -8 16 7 18 25 15 39 -4
20z"/>
<path d="M3660 2595 c7 -9 15 -13 17 -11 7 7 -7 26 -19 26 -6 0 -6 -6 2 -15z"/>
<path d="M3773 2475 c0 -27 2 -38 4 -22 2 15 2 37 0 50 -2 12 -4 0 -4 -28z"/>
<path d="M2467 2490 c-3 -11 -1 -23 4 -26 5 -3 9 -1 9 5 0 5 3 16 6 25 3 9 2
16 -4 16 -5 0 -12 -9 -15 -20z"/>
<path d="M2725 2480 c-10 -11 -14 -20 -8 -20 5 0 18 9 28 20 10 11 14 20 8 20
-5 0 -18 -9 -28 -20z"/>
<path d="M3730 2433 c0 -22 2 -25 10 -13 13 20 13 40 0 40 -5 0 -10 -12 -10
-27z"/>
<path d="M2490 2425 c0 -14 5 -25 10 -25 6 0 10 11 10 25 0 14 -4 25 -10 25
-5 0 -10 -11 -10 -25z"/>
<path d="M3407 2421 c-4 -19 -5 -36 -2 -39 10 -11 16 7 13 40 l-3 33 -8 -34z"/>
<path d="M2530 2386 c0 -31 4 -56 8 -56 12 0 13 98 1 105 -5 4 -9 -17 -9 -49z"/>
<path d="M3110 2415 c0 -14 5 -25 10 -25 6 0 10 11 10 25 0 14 -4 25 -10 25
-5 0 -10 -11 -10 -25z"/>
<path d="M2790 2321 c0 -5 7 -14 16 -22 8 -7 21 -26 29 -43 l13 -31 1 26 c1
15 -8 38 -20 53 -20 26 -39 34 -39 17z"/>
<path d="M3210 2320 c-13 -8 -13 -10 2 -10 9 0 20 5 23 10 8 13 -5 13 -25 0z"/>
<path d="M3747 2303 c-4 -15 -10 -39 -13 -52 -5 -16 -4 -22 4 -18 5 4 13 25
17 48 8 46 1 64 -8 22z"/>
<path d="M2480 2293 c1 -21 27 -59 36 -51 6 6 -23 68 -31 68 -3 0 -5 -8 -5
-17z"/>
<path d="M3261 2259 c-13 -11 -22 -22 -19 -25 3 -2 16 4 29 15 13 11 22 22 19
24 -3 3 -16 -3 -29 -14z"/>
<path d="M3697 2250 c-3 -11 -3 -20 -1 -20 2 0 8 9 14 20 6 11 7 20 2 20 -6 0
-12 -9 -15 -20z"/>
<path d="M2559 2242 c11 -21 51 -58 51 -48 0 5 -9 21 -21 37 -22 32 -46 41
-30 11z"/>
<path d="M2600 2256 c0 -9 64 -65 69 -60 6 5 -50 64 -61 64 -4 0 -8 -2 -8 -4z"/>
<path d="M2795 2240 c10 -11 20 -18 23 -15 7 6 -18 35 -31 35 -5 0 -2 -9 8
-20z"/>
<path d="M3650 2239 c-13 -24 -4 -41 10 -19 10 16 13 40 5 40 -2 0 -9 -9 -15
-21z"/>
<path d="M2780 2199 c7 -11 14 -18 17 -15 8 8 -5 36 -17 36 -7 0 -7 -6 0 -21z"/>
<path d="M3410 2130 c-22 -14 -10 -17 40 -12 35 4 41 7 25 13 -27 11 -47 10
-65 -1z"/>
<path d="M3065 2099 c-11 -17 -2 -18 30 -4 l30 13 -27 1 c-15 1 -30 -4 -33
-10z"/>
<path d="M2420 2203 c0 -13 29 -38 35 -31 3 3 -4 13 -15 23 -11 10 -20 13 -20
8z"/>
<path d="M2530 2119 c0 -12 11 -16 65 -24 34 -5 47 -4 40 3 -13 13 -105 32
-105 21z"/>
<path d="M2495 2090 c-3 -6 6 -15 21 -20 41 -16 54 -6 17 13 -20 11 -34 13
-38 7z"/>
<path d="M2474 2055 c11 -8 22 -12 25 -9 6 6 -19 24 -34 24 -5 -1 -1 -7 9 -15z"/>
<path d="M2840 2045 c13 -14 26 -23 28 -20 7 7 -29 45 -41 45 -6 0 0 -11 13
-25z"/>
<path d="M2810 2016 c0 -2 7 -9 15 -16 9 -7 15 -8 15 -2 0 5 -7 12 -15 16 -8
3 -15 4 -15 2z"/>
<path d="M1066 1701 c-40 -27 -55 -57 -56 -113 0 -35 5 -53 20 -68 20 -20 24
-21 125 -41 72 -13 85 -23 85 -60 0 -77 -120 -93 -165 -22 -12 20 -28 32 -41
33 -56 1 -28 -87 37 -121 117 -59 253 16 234 130 -10 60 -46 88 -135 102 -101
16 -125 45 -75 94 36 37 79 33 122 -10 39 -39 66 -42 71 -8 5 31 -14 61 -51
83 -43 27 -131 27 -171 1z"/>
<path d="M1462 1710 c-31 -13 -79 -92 -91 -151 -6 -28 -11 -89 -11 -138 0 -94
12 -126 46 -119 17 3 20 15 25 133 3 72 12 145 19 163 12 32 47 51 69 38 19
-12 32 -87 36 -204 2 -89 7 -119 18 -126 32 -21 44 0 52 88 13 165 41 236 91
236 19 0 24 -8 33 -50 13 -62 14 -114 1 -200 -10 -69 -3 -90 31 -90 29 0 39
32 46 138 6 110 -8 204 -36 242 -39 53 -104 51 -157 -6 -18 -19 -35 -34 -37
-34 -3 0 -10 14 -17 30 -12 30 -55 61 -82 59 -7 0 -23 -4 -36 -9z"/>
<path d="M2028 1703 c-14 -16 -51 -110 -123 -312 -25 -68 -26 -75 -11 -90 23
-22 45 -6 65 49 19 52 30 56 126 45 l62 -6 14 -46 c18 -56 41 -75 65 -51 18
17 15 27 -96 338 -16 47 -30 86 -30 87 0 12 -60 -1 -72 -14z m72 -164 c10 -41
16 -77 13 -81 -2 -5 -26 -8 -54 -8 -39 0 -49 3 -49 17 0 30 54 163 63 154 4
-4 17 -42 27 -82z"/>
<path d="M3605 1710 c-3 -6 -3 -52 1 -104 11 -150 -20 -236 -86 -236 -56 0
-84 61 -104 225 -10 91 -13 100 -33 103 -35 5 -45 -28 -37 -121 16 -189 92
-293 199 -273 48 9 79 38 106 98 20 45 24 69 24 158 0 85 -4 111 -18 133 -18
28 -41 35 -52 17z"/>
<path d="M4240 1709 c-72 -29 -130 -128 -130 -224 1 -112 49 -175 152 -197 73
-15 137 12 167 71 26 50 29 152 5 175 -17 17 -79 20 -149 8 -34 -6 -40 -11
-40 -32 0 -24 3 -25 63 -26 35 -1 68 -6 74 -12 17 -17 0 -79 -29 -102 -29 -22
-65 -25 -112 -9 -56 20 -81 102 -56 186 29 97 112 132 185 78 40 -30 35 -29
54 -9 14 13 14 19 1 43 -25 49 -122 75 -185 50z"/>
<path d="M2356 1700 c-64 -19 -66 -27 -66 -207 0 -94 4 -173 10 -184 6 -11 21
-19 35 -19 24 0 25 3 25 60 l0 60 45 0 c43 0 45 -1 56 -41 18 -57 82 -99 120
-78 30 15 21 51 -15 60 -54 15 -61 59 -16 103 71 69 40 202 -57 242 -36 15
-93 17 -137 4z m139 -85 c31 -30 34 -93 8 -118 -25 -21 -83 -30 -116 -18 -26
10 -27 13 -27 80 0 77 2 79 68 80 33 1 49 -5 67 -24z"/>
<path d="M2601 1696 c-9 -11 -10 -20 -1 -35 9 -17 20 -21 65 -21 l55 0 0 -164
c0 -172 5 -192 47 -184 16 3 18 19 21 170 l2 167 63 3 c59 3 62 4 65 30 4 34
0 35 -174 42 -107 5 -134 3 -143 -8z"/>
<path d="M2987 1703 c-4 -3 -7 -83 -7 -177 0 -197 3 -205 77 -230 56 -19 83
-20 135 -4 59 18 88 58 88 123 0 45 -5 60 -29 87 -21 25 -26 38 -20 53 11 29
11 83 -1 106 -19 34 -64 49 -153 49 -46 0 -87 -3 -90 -7z m180 -80 c16 -21 16
-25 0 -47 -13 -18 -81 -38 -103 -29 -26 10 -23 89 5 97 29 8 86 -3 98 -21z
m22 -150 c32 -27 38 -76 12 -102 -23 -23 -81 -28 -125 -11 -24 9 -26 15 -26
64 0 34 5 56 13 59 30 13 106 6 126 -10z"/>
<path d="M3774 1701 c-19 -8 -21 -20 -27 -123 -13 -213 -10 -244 19 -267 40
-31 109 -37 174 -15 43 15 61 28 85 62 28 40 30 50 29 125 0 92 -18 140 -74
192 -28 27 -38 30 -108 32 -42 2 -86 -1 -98 -6z m158 -72 c49 -26 74 -152 43
-224 -16 -39 -46 -55 -103 -55 -65 0 -65 2 -57 154 l7 136 45 0 c24 0 53 -5
65 -11z"/>
<path d="M4530 1690 c-7 -13 -10 -84 -9 -191 2 -223 -6 -213 154 -202 l120 8
3 28 c4 31 10 29 -113 31 l-90 1 -3 49 c-2 27 0 52 5 56 4 5 44 11 88 14 87 7
106 17 89 44 -9 13 -30 18 -95 22 l-84 5 0 45 0 45 97 3 c86 2 98 5 103 22 3
11 3 24 0 30 -4 6 -58 10 -130 10 -115 0 -125 -2 -135 -20z"/>
<path d="M4851 1692 c-17 -33 5 -52 60 -52 31 0 51 -5 54 -12 2 -7 5 -81 7
-164 3 -163 12 -193 49 -173 17 9 19 23 19 174 l0 165 59 0 c62 0 86 14 75 44
-8 21 -23 24 -181 30 -120 6 -133 4 -142 -12z"/>
<path d="M584 1157 c-3 -8 -4 -47 -2 -88 l3 -74 53 -3 c31 -2 52 1 52 7 0 6
-20 11 -45 11 -43 0 -45 1 -45 30 0 28 3 30 35 30 19 0 35 5 35 10 0 6 -16 10
-36 10 -33 0 -35 2 -32 28 3 24 7 27 46 30 55 4 44 22 -14 22 -28 0 -47 -5
-50 -13z"/>
<path d="M941 1139 l-24 -32 -19 26 c-30 41 -41 32 -16 -12 l22 -39 -26 -38
c-35 -49 -25 -59 13 -14 32 39 28 40 74 -25 11 -16 14 -17 14 -4 1 8 -10 30
-24 49 l-25 33 21 34 c28 45 20 62 -10 22z"/>
<path d="M1147 1163 c-11 -10 -8 -173 2 -173 6 0 11 15 13 32 3 29 7 33 42 39
57 9 74 51 36 89 -19 19 -79 28 -93 13z m74 -23 c27 -15 24 -48 -5 -62 -35
-15 -56 -4 -56 30 0 43 20 53 61 32z"/>
<path d="M1427 1163 c-4 -3 -7 -44 -7 -90 l0 -83 55 0 c30 0 55 5 55 10 0 6
-20 10 -45 10 -43 0 -45 1 -45 30 0 28 3 30 35 30 19 0 35 5 35 10 0 6 -16 10
-36 10 -33 0 -35 2 -32 28 3 24 7 27 46 30 23 2 40 7 37 13 -7 10 -88 13 -98
2z"/>
<path d="M2020 1152 c-31 -25 -19 -55 30 -75 29 -11 40 -21 40 -36 0 -25 -43
-39 -65 -21 -9 7 -19 10 -23 6 -10 -11 28 -36 53 -36 43 0 73 63 42 88 -6 6
-25 14 -40 17 -34 9 -42 22 -26 41 8 10 21 13 36 9 26 -6 32 9 7 19 -24 9 -30
8 -54 -12z"/>
<path d="M2274 1157 c-3 -8 -4 -47 -2 -88 l3 -74 53 -3 c31 -2 52 1 52 7 0 6
-20 11 -45 11 -43 0 -45 1 -45 30 0 28 3 30 35 30 19 0 35 5 35 10 0 6 -16 10
-35 10 -32 0 -35 2 -35 30 0 29 2 30 46 30 27 0 43 4 39 10 -9 15 -95 12 -101
-3z"/>
<path d="M3488 1164 c-5 -4 -8 -31 -8 -61 0 -68 -12 -68 -69 2 -24 30 -47 55
-52 55 -5 0 -9 -36 -9 -80 0 -47 4 -80 10 -80 6 0 10 25 10 55 0 30 4 55 9 55
5 0 21 -17 37 -37 54 -72 72 -89 79 -72 8 22 2 172 -7 163z"/>
<path d="M3994 1136 c-36 -36 -40 -50 -24 -90 19 -51 116 -72 150 -31 19 23 8
70 -17 73 -27 4 -30 -6 -5 -24 26 -19 4 -48 -40 -52 -29 -2 -40 2 -57 24 -28
35 -27 59 5 91 22 22 31 24 67 19 39 -6 41 -5 23 9 -32 24 -65 18 -102 -19z"/>
<path d="M4292 1161 c-9 -5 -12 -30 -10 -87 l3 -79 44 -3 c65 -5 88 11 26 17
-45 5 -50 8 -50 31 0 22 6 26 40 31 40 5 34 15 -15 21 -28 3 -40 36 -18 49 7
5 30 9 51 9 23 0 36 4 32 10 -7 12 -85 13 -103 1z"/>
<path d="M4887 1163 c-4 -3 -7 -44 -7 -90 l0 -83 55 0 c30 0 55 5 55 10 0 6
-20 10 -45 10 -43 0 -45 1 -45 30 0 28 3 30 35 30 19 0 35 5 35 10 0 6 -16 10
-36 10 -33 0 -35 2 -32 28 3 24 7 27 46 30 23 2 42 7 42 13 0 10 -93 13 -103
2z"/>
<path d="M5287 1157 c-4 -10 -7 -39 -7 -63 0 -24 -4 -44 -9 -44 -5 0 -28 25
-52 55 -24 30 -50 54 -56 55 -9 0 -13 -22 -13 -80 0 -47 4 -80 10 -80 6 0 10
25 10 55 0 30 3 55 8 55 4 0 30 -26 59 -57 28 -32 54 -55 57 -52 10 9 13 71 6
125 -4 35 -7 44 -13 31z"/>
<path d="M5465 1161 c-3 -5 5 -11 17 -13 21 -3 23 -9 26 -75 2 -40 7 -73 12
-73 5 0 10 33 12 73 3 66 5 72 26 75 40 6 12 22 -38 22 -27 0 -51 -4 -55 -9z"/>
<path d="M1690 1074 c0 -54 4 -83 10 -79 6 3 10 31 10 61 0 30 4 54 10 54 5 0
28 -24 52 -54 24 -30 49 -55 56 -55 9 -1 12 21 12 79 0 47 -4 80 -10 80 -5 0
-10 -25 -10 -55 0 -30 -4 -55 -9 -55 -5 0 -30 25 -56 55 -25 30 -51 55 -56 55
-5 0 -9 -39 -9 -86z"/>
<path d="M2720 1080 c0 -47 4 -80 10 -80 6 0 10 23 10 50 0 28 3 50 7 50 3 0
18 -14 33 -32 l26 -31 23 36 c13 21 27 35 32 31 5 -3 9 -31 9 -62 0 -39 3 -53
10 -46 14 14 9 156 -6 161 -6 2 -23 -15 -38 -37 -14 -22 -30 -40 -35 -40 -5 0
-20 18 -35 40 -14 22 -31 40 -36 40 -6 0 -10 -34 -10 -80z"/>
<path d="M3085 1108 c-13 -29 -26 -66 -30 -83 l-6 -30 17 23 c24 32 78 30 100
-3 9 -14 19 -24 21 -21 7 7 -60 166 -70 166 -4 0 -19 -24 -32 -52z m49 -14
c11 -27 7 -34 -20 -34 -20 0 -25 4 -20 16 3 9 6 20 6 25 0 15 27 10 34 -7z"/>
<path d="M3697 1103 c-14 -32 -28 -71 -32 -88 l-6 -30 21 28 c32 41 86 37 105
-8 6 -15 9 -16 12 -5 4 18 -51 153 -65 158 -5 1 -21 -23 -35 -55z m57 -35 c-7
-11 -42 -10 -48 0 -3 5 2 19 11 32 l16 23 13 -24 c7 -13 10 -27 8 -31z"/>
<path d="M4560 1073 c0 -96 17 -106 22 -13 l3 55 25 -37 c14 -21 28 -38 32
-38 3 0 17 17 30 38 l23 37 3 -55 c5 -93 22 -83 22 13 0 48 -4 87 -9 87 -4 0
-20 -18 -35 -40 -14 -22 -31 -40 -36 -40 -5 0 -22 18 -36 40 -15 22 -31 40
-35 40 -5 0 -9 -39 -9 -87z"/>
</g>
</svg>
